PathFileType	4	(X/Y/Z)	C:/Users/beibeiliu/ov580/test_trc/User2\sequence.27_training_dense_left.trc
DataRate	CameraRate	NumFrames	NumMarkers	Units	OrigDataRate	OrigDataStartFrame	OrigNumFrames
120	120	21	19	mm	120	174	278
Frame#	Time	ThumbCMC			ThumbMCP			ThumbIP			ThumbTip			IndexMCP			IndexPIP			IndexTip			MiddleMCP			MiddlePIP			MiddleTip			RingMCP			RingPIP			RingTip			PinkyMCP			PinkyPIP			PinkyTip			BackHand1			BackHand2			BackHand3	
		X0	Y0	Z0	X1	Y1	Z1	X2	Y2	Z2	X3	Y3	Z3	X4	Y4	Z4	X5	Y5	Z5	X6	Y6	Z6	X7	Y7	Z7	X8	Y8	Z8	X9	Y9	Z9	X10	Y10	Z10	X11	Y11	Z11	X12	Y12	Z12	X13	Y13	Z13	X14	Y14	Z14	X15	Y15	Z15	X16	Y16	Z16	X17	Y17	Z17	X18	Y18	Z18	
173	1.44167	-160.726	-42.083	82.5464	-152.385	-47.0833	46.4573	-152.948	-45.3252	8.90154	-167.824	-45.3275	-11.463	-178.557	20.4384	36.785	-173.695	33.8421	3.24668	-174.801	24.6699	-24.3942	-207.193	24.1824	34.3328	-203.772	35.6038	-3.23563	-196.189	12.3813	-34.0452	-225.067	12.6471	36.9802	-229.708	25.7626	6.9394	-214.246	13.1994	-23.7832	-246.657	-10.1838	47.3582	-256.096	9.38562	23.7314	-260.406	18.2709	-3.70262	-223.133	-17.1548	82.2587	-223.545	-31.4928	107.122	-188.64	-13.0927	96.6261	
174	1.45	-158.899	-47.3752	79.551	-150.82	-54.021	46.0717	-147.399	-56.6904	8.70794	-162.688	-56.2647	-11.5079	-171.974	14.2225	35.0002	-172.528	28.5398	2.35011	-170.519	24.4752	-29.401	-204.549	21.8989	33.5132	-204.882	36.2142	-3.03522	-204.247	25.323	-34.5531	-227.968	12.3275	37.0864	-225.289	26.8053	8.46715	-221.73	19.4581	-23.5259	-247.213	-11.6925	47.926	-254.906	8.17645	27.5555	-262.364	19.0994	1.73553	-225.396	-17.2288	79.2366	-222.838	-31.2661	108.882	-186.757	-17.501	94.9233	
175	1.45833	-157.829	-52.7805	80.7549	-145.559	-62.6892	45.0689	-146.296	-67.7874	11.5872	-151.655	-72.129	-15.1372	-177.021	8.54876	28.2463	-169.637	22.2553	2.58658	-169.703	23.6915	-30.2101	-206.029	17.977	30.843	-208.539	34.1228	1.08671	-209.02	31.2598	-38.3521	-227.508	7.24676	36.4359	-228.565	23.5031	8.80713	-228.774	23.2321	-20.5683	-250.014	-14.529	48.4763	-259.415	2.60667	29.1239	-267.665	17.875	7.25859	-221.949	-23.7769	81.2844	-218.364	-32.6453	108.059	-185.551	-21.3343	92.5413	
176	1.46667	-158.131	-56.3214	74.2694	-147.38	-71.2381	44.7885	-145.128	-80.3897	12.9199	-149.566	-86.6074	-12.5708	-179.647	0.574523	23.428	-177.563	14.478	-6.84385	-176.173	18.2258	-32.6055	-207.911	11.3102	26.8488	-208.988	27.3046	-1.301	-213.348	33.6238	-39.0604	-231.413	1.31133	34.8658	-238.086	17.8778	10.7227	-237.949	22.6515	-24.0316	-248.686	-18.2609	47.1608	-266.949	-1.25204	28.8944	-275.965	12.8959	11.6181	-224.338	-25.0022	79.8987	-218.942	-32.8249	108.372	-184.704	-21.986	86.466	
177	1.475	-157.254	-62.4772	73.3549	-151.243	-80.5568	43.9487	-149.577	-92.1374	15.2677	-155.194	-100.392	-12.3885	-181.171	-7.21913	15.5064	-182.403	3.41036	-10.349	-181.831	9.51176	-40.3051	-211.48	0.314321	23.7766	-216.453	19.3966	-8.69668	-223.302	27.1219	-37.4141	-232.865	-4.43888	31.4122	-244.071	9.05972	10.24	-249.766	18.7263	-22.4752	-256.178	-27.5279	50.938	-272.073	-11.0429	32.5979	-285.164	6.05733	15.6502	-226.515	-25.847	76.1908	-219.955	-35.2667	110.653	-187.42	-26.3875	85.544	
178	1.48333	-159.582	-65.4678	70.8725	-159.393	-82.6336	43.5476	-152.613	-99.8045	11.5288	-156.637	-111.907	-9.53439	-186.591	-16.487	13.6784	-190.022	-3.80983	-13.5795	-188.383	4.7301	-43.6561	-212.746	-2.2109	16.6712	-220.055	12.3129	-12.3742	-228.437	23.0477	-39.3096	-237.953	-10.79	30.7235	-253.909	3.53501	8.07039	-257.851	13.6743	-19.3651	-261.841	-28.3883	50.0452	-274.332	-18.1108	33.4756	-288.547	-1.00526	18.3037	-229.3	-28.9924	76.552	-216.223	-31.8301	105.982	-186.181	-27.7408	81.4349	
179	1.49167	-162.569	-67.6689	71.8691	-159.565	-87.6023	47.1641	-161.075	-104.486	14.1817	-165.27	-117.435	-4.64471	-194.037	-19.6699	6.72432	-192.681	-12.5979	-15.3001	-201.287	-4.10117	-41.0268	-218.313	-9.89231	16.5319	-226.628	4.00135	-10.3284	-237.949	16.3903	-37.5985	-247.846	-16.8466	31.8801	-257.088	-4.40994	9.26898	-268.255	7.67422	-17.7866	-266.531	-32.0157	50.9455	-281.363	-21.0465	33.8611	-296.061	-7.72215	22.9396	-229.984	-31.1528	78.3455	-215.955	-34.2915	107.373	-189.735	-30.2082	81.0377	
180	1.5	-166.423	-68.6806	69.6032	-162.796	-91.1431	46.8262	-164.542	-110.688	11.739	-173.938	-123.685	-7.67477	-201.73	-26.5396	9.36372	-204.189	-18.6317	-20.6592	-205.263	-11.7144	-45.7598	-223.513	-13.1582	11.9041	-232.938	0.284287	-15.0655	-243.761	12.0805	-39.6833	-253	-18.1303	28.8424	-260.431	-10.0722	9.83954	-275.59	1.6406	-15.5754	-266.908	-35.1982	49.5704	-284.413	-26.7386	37.1955	-299.792	-13.2073	27.358	-228.113	-30.9607	74.3035	-220.248	-29.9162	104.223	-194.228	-32.838	78.8535	
181	1.50833	-170.627	-70.211	68.4129	-165.626	-95.603	42.0252	-168.136	-115.069	16.3529	-178.344	-129.533	-4.85828	-204.32	-29.6283	3.35833	-209.351	-26.1956	-19.4318	-212.77	-19.9914	-50.6338	-229.923	-18.2217	13.6992	-236.7	-7.4748	-12.7746	-252.404	7.22512	-40.2336	-255.881	-25.3106	33.022	-269.52	-13.2957	7.49273	-280.956	-5.41876	-12.703	-271.368	-40.7196	56.9118	-288.879	-29.9664	37.0199	-306.41	-16.5223	30.037	-230.517	-32.5579	75.0035	-220.009	-33.028	107.464	-197.663	-32.1971	73.8359	
182	1.51667	-171.936	-71.9659	71.2287	-169.88	-97.9321	43.5063	-174.353	-119.433	15.392	-182.199	-134.102	-0.840678	-208.286	-34.2028	5.9069	-213.831	-30.3975	-20.2222	-221.919	-25.61	-50.073	-232.856	-21.0831	13.0425	-246.132	-8.53976	-15.9127	-257.729	0.67311	-36.2757	-256.362	-26.1824	27.473	-273.005	-17.0757	8.81686	-289.717	-6.35034	-13.6159	-274.333	-40.247	55.7114	-294.009	-34.0881	46.3988	-312.663	-20.4451	32.7126	-234.564	-35.0805	76.8792	-219.139	-32.6447	107.139	-196.908	-34.4963	75.2393	
183	1.525	-174.239	-71.3102	69.629	-171.042	-98.9324	44.1737	-176.24	-119.599	17.2582	-190.68	-133.116	-0.313873	-213.374	-34.8758	4.3498	-216.222	-31.9573	-26.2924	-223.682	-29.7461	-48.8206	-237.028	-23.0756	16.2812	-249.119	-9.90803	-15.5467	-261.911	0.314344	-39.5244	-259.166	-28.0638	31.1258	-277.456	-17.8054	11.0217	-289.023	-9.89143	-11.4375	-274.662	-42.1799	58.5477	-294.538	-34.3599	42.1895	-309.299	-21.194	34.5679	-231.493	-35.5119	77.3332	-222.864	-31.3954	107.533	-197.556	-34.4575	76.8995	
184	1.53333	-173.611	-70.5866	66.5117	-171.109	-97.5498	44.5652	-178.921	-117.582	18.467	-187.509	-132.204	2.31262	-213.596	-35.7906	5.51264	-217.934	-33.9672	-21.2563	-228.585	-30.7323	-46.4665	-240.302	-22.2233	11.654	-246.474	-12.7959	-13.2654	-260.103	-1.52103	-38.2191	-262.944	-26.9189	29.8617	-275.536	-19.5878	10.2338	-291.741	-8.8957	-12.7547	-276.453	-41.8334	55.8185	-294.678	-34.3916	41.3265	-312.863	-23.604	35.474	-235.436	-34.4228	76.3597	-222.036	-34.014	106.551	-199.24	-33.34	73.8041	
185	1.54167	-172.24	-68.2108	69.0467	-169.915	-93.1496	43.7035	-175.896	-113.22	15.046	-187.361	-127.151	-1.28181	-211.561	-32.4616	2.8984	-216.67	-30.782	-21.1844	-225.329	-28.5838	-46.802	-234.157	-20.4761	11.6578	-247.535	-12.0095	-13.3492	-259.409	-0.89921	-38.4214	-258.179	-29.3368	30.9527	-270.474	-19.6126	9.88417	-286.535	-10.1412	-14.3672	-270.618	-44.831	53.6035	-295.388	-35.505	39.429	-308.837	-24.8435	29.4686	-235.266	-34.1181	75.6375	-223.235	-33.2354	102.921	-198.783	-31.6796	74.0726	
186	1.55	-167.37	-63.1374	71.4041	-164.675	-88.2071	44.9814	-166.475	-108.893	16.6005	-176.482	-122.059	-0.165432	-206.377	-29.6974	7.85204	-210.089	-25.2394	-24.7079	-215.224	-23.8386	-46.1305	-233.445	-20.1938	15.7896	-240.907	-7.38923	-15.8643	-252.017	3.6021	-39.2342	-254.713	-26.2357	25.1081	-269.839	-17.3655	6.08607	-283.296	-7.00966	-18.4555	-273.539	-44.918	50.025	-286.625	-37.6956	33.1142	-302.114	-22.7059	19.3794	-239.589	-36.4264	78.5461	-227.298	-32.2362	105.06	-197.501	-29.5472	79.5776	
187	1.55833	-169.049	-57.7047	77.8661	-159.658	-79.4396	51.1602	-157.434	-98.9171	18.9504	-163.914	-111.068	-1.96889	-197.766	-21.1898	7.72913	-195.011	-17.4276	-16.8123	-198.738	-16.4217	-48.8735	-222.227	-12.2037	13.1503	-231.96	-1.12823	-13.5733	-238.428	8.73193	-39.3516	-245.724	-22.535	23.2925	-256.209	-13.5821	1.66592	-267.005	-4.86938	-20.802	-266.472	-45.0149	42.6487	-279.826	-37.3617	24.7235	-291.87	-24.4843	9.47669	-233.764	-35.6253	71.5504	-231.644	-36.1711	104.811	-202.832	-26.0145	80.8935	
188	1.56667	-160.927	-49.2302	82.5715	-145.226	-68.9134	53.7917	-141.362	-84.6527	21.6845	-148.907	-96.7163	-0.590494	-183.482	-11.591	12.8096	-176.954	-7.93909	-13.7266	-176.712	-10.9591	-45.2515	-215.176	-8.33884	17.6145	-215.623	6.86807	-12.4454	-219.777	20.623	-44.2266	-237.303	-20.0416	21.5925	-245.028	-8.92637	-2.65274	-248.388	1.60695	-30.1183	-252.092	-42.3925	31.9703	-263.566	-37.5033	14.5082	-274.488	-26.5292	-3.06015	-234.077	-33.6477	69.4597	-229.258	-36.5864	105.88	-199.584	-20.9777	82.375	
189	1.575	-156.051	-44.5325	86.1051	-140.619	-61.0586	59.0001	-127.47	-76.1969	28.7079	-130.583	-87.3526	2.17686	-172.063	-6.38177	19.0134	-162.65	-3.66617	-11.6863	-155.519	-10.1501	-38.8436	-204.639	-3.3185	18.0222	-207.361	10.697	-11.379	-209.756	22.9139	-42.2896	-224.258	-16.217	19.0095	-234.147	-5.96114	-7.44931	-233.818	5.70891	-33.521	-241.892	-42.1055	28.2016	-246.113	-35.2947	6.83075	-255.596	-22.6401	-14.1642	-224.651	-33.7868	72.2547	-227.753	-37.8126	104.209	-193.544	-21.0675	86.3869	
190	1.58333	-149.753	-41.8437	91.4134	-130.342	-57.2127	62.462	-119.171	-69.2552	31.3531	-118.885	-78.746	8.06167	-164.982	-5.07653	22.5659	-155.096	-5.31052	-7.05735	-140.5	-17.0978	-34.8758	-196.767	-0.241727	18.763	-194.158	16.0325	-11.309	-197.39	25.3736	-39.2408	-220.041	-19.0818	20.6659	-220.106	-4.03539	-4.73496	-223.297	6.44881	-32.9305	-230.037	-44.1097	29.7314	-235.053	-32.3479	3.38087	-241.497	-18.3415	-18.4583	-222.11	-36.1015	66.2694	-225.62	-40.1213	98.6638	-190.161	-20.3554	92.1618	
191	1.59167	-149.468	-41.4542	94.0088	-126.002	-54.354	72.0191	-113.334	-64.0484	41.1247	-114.156	-71.8969	13.8127	-155.045	-3.16521	25.273	-139.618	-5.2089	-3.34038	-129.135	-24.3592	-25.2264	-187.781	2.57014	21.7663	-186.316	16.5741	-6.77989	-181.8	29.5254	-38.3336	-206.867	-11.0165	20.9617	-211.414	-0.533027	-5.56258	-209.464	9.63654	-32.3411	-220.484	-39.1675	27.4515	-227.086	-29.3681	4.09462	-228.397	-15.9821	-21.0583	-217.009	-33.42	68.197	-221.931	-39.1696	98.3931	-190.36	-22.1205	93.644	
192	1.6	-143.119	-42.3537	101.157	-120.207	-52.186	74.1995	-109.308	-59.5389	42.4739	-104.42	-67.5156	14.9059	-144.031	-1.42003	28.1438	-131.78	-8.95558	3.07104	-114.942	-35.2274	-14.4287	-179.238	3.71809	25.8212	-174.405	17.7692	-5.33555	-167.722	29.6032	-33.8078	-202.294	-9.68259	21.8083	-202.309	4.65916	-3.57869	-193.837	16.5332	-30.7115	-218.922	-38.0761	27.3238	-222.719	-27.1091	3.8074	-225.692	-14.1583	-19.0073	-210.991	-32.8701	71.7896	-215.8	-39.1324	103.978	-184.069	-20.5673	96.3072	
193	1.60833	-141.066	-42.7018	105.452	-120.336	-52.7399	77.4575	-104.734	-56.7702	43.7941	-98.0645	-62.4707	19.7166	-135.409	-2.94428	30.1517	-119.577	-14.9338	7.48943	-113.603	-44.5007	-8.64762	-169.543	8.23553	23.9639	-164.24	19.4733	-3.12144	-155.792	28.6788	-33.626	-197.225	-5.78345	22.2582	-194.146	8.24098	-2.06301	-188.749	16.9212	-26.8694	-210.135	-33.9339	29.2979	-218.173	-23.3603	3.55777	-221.367	-9.33696	-21.6092	-207.029	-29.785	68.3698	-217.748	-37.1309	101.457	-178.767	-18.8323	97.6068	
